<svg xmlns="http://www.w3.org/2000/svg" viewBox="0 0 1480 1064" fill="none">
  <defs>
    <filter id="shadow" x="-8%" y="-8%" width="116%" height="116%">
      <feDropShadow dx="8" dy="12" stdDeviation="10" flood-color="#3d3022" flood-opacity=".25"/>
    </filter>
    <filter id="paperNoise">
      <feTurbulence type="fractalNoise" baseFrequency=".82" numOctaves="3" stitchTiles="stitch"/>
      <feColorMatrix values="0 0 0 0 .45 0 0 0 0 .39 0 0 0 0 .28 0 0 0 .12 0"/>
    </filter>
    <linearGradient id="paperWash" x1="141" y1="78" x2="1355" y2="1007" gradientUnits="userSpaceOnUse">
      <stop stop-color="#fffdf4"/>
      <stop offset=".52" stop-color="#f7f0e1"/>
      <stop offset="1" stop-color="#eee2ce"/>
    </linearGradient>
    <linearGradient id="tapeWash" x1="0" y1="0" x2="1" y2="1">
      <stop stop-color="#ead38f" stop-opacity=".72"/>
      <stop offset=".55" stop-color="#d7b86f" stop-opacity=".54"/>
      <stop offset="1" stop-color="#f3dfa5" stop-opacity=".78"/>
    </linearGradient>
    <pattern id="fiber" width="22" height="18" patternUnits="userSpaceOnUse" patternTransform="rotate(6)">
      <path d="M0 3H22M0 14H22" stroke="#7b6b50" stroke-opacity=".08" stroke-width="1"/>
    </pattern>
  </defs>

  <g filter="url(#shadow)">
    <path d="M102 92 L1354 84 L1366 1007 L110 1017 Z M141 126 L1316 120 L1324 886 L145 893 Z" fill="url(#paperWash)" fill-rule="evenodd"/>
    <path d="M102 92 L1354 84 L1366 1007 L110 1017 Z M141 126 L1316 120 L1324 886 L145 893 Z" fill="url(#fiber)" fill-rule="evenodd" opacity=".65"/>
    <path d="M102 92 L1354 84 L1366 1007 L110 1017 Z M141 126 L1316 120 L1324 886 L145 893 Z" fill-rule="evenodd" filter="url(#paperNoise)" opacity=".48"/>

    <path d="M102 92 L1354 84 L1366 1007 L110 1017 Z" stroke="#4a4032" stroke-opacity=".74" stroke-width="3"/>
    <path d="M141 126 L1316 120 L1324 886 L145 893 Z" stroke="#6b5a44" stroke-opacity=".66" stroke-width="2.2"/>

    <path d="M143 126 L1315 120 L1322 884 L145 891 L110 1014 L102 92 Z" fill="#f5eddf" fill-opacity=".01"/>
    <path d="M142 126 L1316 120" stroke="#8a7a61" stroke-opacity=".18" stroke-width="9"/>
    <path d="M145 893 L1324 886" stroke="#8a7a61" stroke-opacity=".13" stroke-width="9"/>
    <path d="M141 126 L145 893" stroke="#8a7a61" stroke-opacity=".13" stroke-width="9"/>
    <path d="M1316 120 L1324 886" stroke="#8a7a61" stroke-opacity=".13" stroke-width="9"/>
  </g>

  <g opacity=".76">
    <path d="M45 118 L225 31 L236 45 L220 49 L239 62 L223 64 L240 78 L221 79 L232 93 L214 91 L225 107 L207 104 L214 120 L44 165 L64 150 L43 149 L62 137 L41 134 Z" fill="url(#tapeWash)" stroke="#9b7c45" stroke-opacity=".46" stroke-width="2"/>
    <path d="M44 135 L229 58" stroke="#8f764c" stroke-opacity=".17" stroke-width="6"/>
    <path d="M71 155 L210 91" stroke="#fff6cb" stroke-opacity=".24" stroke-width="4"/>
    <path d="M1214 28 L1398 119 L1380 123 L1401 136 L1382 138 L1400 151 L1378 150 L1393 166 L1373 162 L1382 179 L1191 92 L1207 88 L1190 74 L1209 73 L1194 58 L1214 61 L1203 44 Z" fill="url(#tapeWash)" stroke="#9b7c45" stroke-opacity=".46" stroke-width="2"/>
    <path d="M1224 58 L1383 142" stroke="#8f764c" stroke-opacity=".17" stroke-width="6"/>
    <path d="M1218 83 L1362 153" stroke="#fff6cb" stroke-opacity=".24" stroke-width="4"/>
  </g>
</svg>
